<svg className='SVG-icon SnooIcon' version='1.1' xmlns='http://www.w3.org/2000/svg' xmlns:xlink="http://www.w3.org/1999/xlink" x='0px' y='0px' width='40px' height='40px' viewBox="0 0 216 216">
  <defs>
    <style>
      .cls-1 {
        fill: url(#radial-gradient);
      }

      .cls-1, .cls-2, .cls-3, .cls-4, .cls-5, .cls-6, .cls-7, .cls-8, .cls-9, .cls-10, .cls-11, .cls-12, .cls-13, .cls-14 {
        stroke-width: 0px;
      }

      .cls-2 {
        fill: url(#radial-gradient-2);
      }

      .cls-3 {
        fill: url(#radial-gradient-3);
      }

      .cls-4 {
        fill: url(#radial-gradient-4);
      }

      .cls-5 {
        fill: url(#radial-gradient-6);
      }

      .cls-6 {
        fill: url(#radial-gradient-8);
      }

      .cls-7 {
        fill: url(#radial-gradient-5);
      }

      .cls-8 {
        fill: url(#radial-gradient-7);
      }

      .cls-9 {
        fill: #842123;
      }

      .cls-10 {
        fill: #bbcfda;
      }

      .cls-11 {
        fill: #ff6101;
      }

      .cls-12 {
        fill: #fff;
      }

      .cls-13 {
        fill: #ff4500;
      }

      .cls-14 {
        fill: #ffc49c;
      }
    </style>
    <radialGradient id="radial-gradient" cx="169.75" cy="92.19" fx="169.75" fy="92.19" r="50.98" gradientTransform="translate(0 11.64) scale(1 .87)" gradientUnits="userSpaceOnUse">
      <stop offset="0" stop-color="#feffff"/>
      <stop offset=".4" stop-color="#feffff"/>
      <stop offset=".51" stop-color="#f9fcfc"/>
      <stop offset=".62" stop-color="#edf3f5"/>
      <stop offset=".7" stop-color="#dee9ec"/>
      <stop offset=".72" stop-color="#d8e4e8"/>
      <stop offset=".76" stop-color="#ccd8df"/>
      <stop offset=".8" stop-color="#c8d5dd"/>
      <stop offset=".83" stop-color="#ccd6de"/>
      <stop offset=".85" stop-color="#d8dbe2"/>
      <stop offset=".88" stop-color="#ede3e9"/>
      <stop offset=".9" stop-color="#ffebef"/>
    </radialGradient>
    <radialGradient id="radial-gradient-2" cx="47.31" fx="47.31" r="50.98" xlink:href="#radial-gradient"/>
    <radialGradient id="radial-gradient-3" cx="109.61" cy="85.59" fx="109.61" fy="85.59" r="153.78" gradientTransform="translate(0 25.56) scale(1 .7)" xlink:href="#radial-gradient"/>
    <radialGradient id="radial-gradient-4" cx="-6.01" cy="80.68" fx="-6.01" fy="80.68" r="12.85" gradientTransform="translate(81.08 2.53) scale(1.07 1.55)" gradientUnits="userSpaceOnUse">
      <stop offset="0" stop-color="#f60"/>
      <stop offset=".5" stop-color="#ff4500"/>
      <stop offset=".7" stop-color="#fc4301"/>
      <stop offset=".82" stop-color="#f43f07"/>
      <stop offset=".92" stop-color="#e53812"/>
      <stop offset="1" stop-color="#d4301f"/>
    </radialGradient>
    <radialGradient id="radial-gradient-5" cx="-73.55" cy="80.68" fx="-73.55" fy="80.68" r="12.85" gradientTransform="translate(62.87 2.53) rotate(-180) scale(1.07 -1.55)" xlink:href="#radial-gradient-4"/>
    <radialGradient id="radial-gradient-6" cx="147.88" cy="32.94" fx="147.88" fy="32.94" r="39.77" gradientTransform="translate(0 .54) scale(1 .98)" xlink:href="#radial-gradient"/>
    <radialGradient id="radial-gradient-7" cx="131.31" cy="73.08" fx="131.31" fy="73.08" r="32.6" gradientUnits="userSpaceOnUse">
      <stop offset=".48" stop-color="#7a9299"/>
      <stop offset=".67" stop-color="#172e35"/>
      <stop offset=".75" stop-color="#000"/>
      <stop offset=".82" stop-color="#172e35"/>
    </radialGradient>
    <radialGradient id="radial-gradient-8" cx="107.93" cy="166.96" fx="107.93" fy="166.96" r="45.3" gradientTransform="translate(0 57.4) scale(1 .66)" gradientUnits="userSpaceOnUse">
      <stop offset="0" stop-color="#172e35"/>
      <stop offset=".29" stop-color="#0e1c21"/>
      <stop offset=".73" stop-color="#030708"/>
      <stop offset="1" stop-color="#000"/>
    </radialGradient>
  </defs>
  <path class="cls-13" d="m108,0h0C48.35,0,0,48.35,0,108h0c0,29.82,12.09,56.82,31.63,76.37l-20.57,20.57c-4.08,4.08-1.19,11.06,4.58,11.06h92.36s0,0,0,0c59.65,0,108-48.35,108-108h0C216,48.35,167.65,0,108,0Z"/>
  <circle class="cls-1" cx="169.22" cy="106.98" r="25.22"/>
  <circle class="cls-2" cx="46.78" cy="106.98" r="25.22"/>
  <ellipse class="cls-3" cx="108.06" cy="128.64" rx="72" ry="54"/>
  <path class="cls-4" d="m86.78,123.48c-.42,9.08-6.49,12.38-13.56,12.38s-12.46-4.93-12.04-14.01c.42-9.08,6.49-15.02,13.56-15.02s12.46,7.58,12.04,16.66Z"/>
  <ellipse class="cls-14" cx="79.63" cy="116.37" rx="2.8" ry="3.05"/>
  <path class="cls-7" d="m129.35,123.48c.42,9.08,6.49,12.38,13.56,12.38s12.46-4.93,12.04-14.01c-.42-9.08-6.49-15.02-13.56-15.02s-12.46,7.58-12.04,16.66Z"/>
  <ellipse class="cls-14" cx="146.21" cy="116.37" rx="2.8" ry="3.05"/>
  <path class="cls-12" d="m134.78,145.96c.03.3-.02.61-.15.92-4.35,10.39-14.61,17.69-26.57,17.69s-22.23-7.3-26.57-17.69c-.13-.3-.17-.62-.15-.92-.43.55-.57,1.3-.28,2.01,4.42,10.55,14.84,17.97,27,17.97s22.58-7.41,27-17.97c.3-.71.15-1.46-.27-2.01Z"/>
  <circle class="cls-5" cx="147.49" cy="49.43" r="17.87"/>
  <path class="cls-8" d="m107.8,76.92c-2.14,0-3.87-.89-3.87-2.27,0-16.01,13.03-29.04,29.04-29.04,2.14,0,3.87,1.73,3.87,3.87s-1.73,3.87-3.87,3.87c-11.74,0-21.29,9.55-21.29,21.29,0,1.38-1.73,2.27-3.87,2.27Z"/>
  <path class="cls-9" d="m62.82,122.65c.39-8.56,6.08-14.16,12.69-14.16,6.26,0,11.1,6.39,11.28,14.33.17-8.88-5.13-15.99-12.05-15.99s-13.14,6.05-13.56,15.2c-.42,9.15,4.97,13.83,12.04,13.83.17,0,.35,0,.52,0-6.44-.16-11.3-4.79-10.91-13.2Z"/>
  <path class="cls-9" d="m153.3,122.65c-.39-8.56-6.08-14.16-12.69-14.16-6.26,0-11.1,6.39-11.28,14.33-.17-8.88,5.13-15.99,12.05-15.99,7.07,0,13.14,6.05,13.56,15.2.42,9.15-4.97,13.83-12.04,13.83-.17,0-.35,0-.52,0,6.44-.16,11.3-4.79,10.91-13.2Z"/>
  <path class="cls-11" d="m82.07,128.43c0,3.31-3.53,4.8-7.87,4.8s-7.87-1.49-7.87-4.8,3.53-6,7.87-6,7.87,2.69,7.87,6Z"/>
  <path class="cls-11" d="m149.8,128.43c0,3.31-3.53,4.8-7.87,4.8s-7.87-1.49-7.87-4.8,3.53-6,7.87-6,7.87,2.69,7.87,6Z"/>
  <path class="cls-10" d="m133.46,143.18c-7.91-.79-16.47-1.22-25.4-1.22s-17.48.43-25.4,1.22c-1.35.13-2.21,1.51-1.68,2.74.35.82.74,1.61,1.16,2.38-.23-.47-.45-.95-.65-1.43-.52-1.23.33-2.61,1.65-2.74,7.77-.79,16.16-1.22,24.92-1.22s17.16.43,24.92,1.22c1.33.13,2.17,1.51,1.65,2.74-.2.48-.42.96-.65,1.43.42-.78.81-1.57,1.16-2.38.52-1.23-.33-2.61-1.68-2.74Z"/>
  <path class="cls-6" d="m108.06,142.92c-8.76,0-17.16.43-24.92,1.22-1.33.13-2.17,1.51-1.65,2.74,4.35,10.39,14.61,17.69,26.57,17.69s22.23-7.3,26.57-17.69c.52-1.23-.33-2.61-1.65-2.74-7.77-.79-16.16-1.22-24.92-1.22Z"/>
</svg>
